<?xml version="1.0" standalone="no"?>
<!DOCTYPE svg PUBLIC "-//W3C//DTD SVG 20010904//EN"
 "http://www.w3.org/TR/2001/REC-SVG-20010904/DTD/svg10.dtd">
<svg version="1.0" xmlns="http://www.w3.org/2000/svg"
 width="238.000000pt" height="238.000000pt" viewBox="0 0 238.000000 238.000000"
 preserveAspectRatio="xMidYMid meet">
<metadata>
Created by potrace 1.11, written by Peter Selinger 2001-2013
</metadata>
<g transform="translate(0.000000,238.000000) scale(0.100000,-0.100000)"
fill="#000000" stroke="none">
<path d="M2125 1913 c-26 -26 -112 -51 -159 -47 -164 16 -204 10 -312 -42 -81
-40 -185 -130 -238 -207 -78 -113 -116 -263 -111 -437 3 -130 7 -153 42 -265
59 -189 151 -305 296 -374 91 -43 133 -54 222 -56 158 -4 256 49 346 187 56
87 98 235 71 252 -13 8 -32 -16 -38 -51 -15 -84 -106 -226 -175 -273 -83 -56
-223 -72 -312 -35 -94 39 -183 168 -214 308 -18 79 -25 466 -10 567 24 174
111 306 243 371 59 29 70 31 133 26 81 -7 140 -33 174 -79 14 -18 48 -105 77
-193 55 -168 85 -235 106 -235 25 0 23 19 -17 141 -64 199 -82 277 -83 368 -1
89 -10 105 -41 74z"/>
<path d="M695 1892 c-188 -21 -357 -107 -462 -235 -99 -120 -145 -265 -149
-467 -4 -246 48 -416 166 -543 135 -147 301 -204 565 -193 77 3 154 8 170 11
25 5 136 30 233 52 12 3 22 10 23 17 5 79 2 689 -4 693 -7 4 -348 7 -478 4
l-35 -1 1 -89 c0 -50 4 -93 8 -97 3 -4 69 -7 144 -8 l138 -1 1 -182 0 -181
-80 -13 c-158 -25 -295 -11 -398 42 -97 50 -176 170 -202 309 -15 75 -15 259
-2 315 41 167 137 284 276 339 63 25 74 27 175 31 99 5 197 -12 302 -50 l64
-23 13 32 c7 17 25 60 40 95 15 35 26 64 24 66 -6 4 -133 47 -153 51 -11 2
-31 6 -45 9 -14 3 -36 8 -50 11 -30 6 -243 11 -285 6z"/>
</g>
</svg>
